<svg width="27" height="29" viewBox="0 0 27 29" fill="none" xmlns="http://www.w3.org/2000/svg">
<rect x="0.5" y="-0.5" width="26" height="28" rx="5.5" transform="matrix(1 0 0 -1 0 28)" stroke="#878787"/>
<path d="M20.1663 19.1296C20.1663 19.4489 20.0386 19.755 19.8113 19.9808C19.584 20.2065 19.2757 20.3333 18.9542 20.3333H8.04513C7.72365 20.3333 7.41535 20.2065 7.18803 19.9808C6.96071 19.755 6.83301 19.4489 6.83301 19.1296V12.5093C6.83301 12.19 6.96071 11.8839 7.18803 11.6581C7.41535 11.4324 7.72365 11.3056 8.04513 11.3056H10.4694L11.6815 9.5H15.3179L16.53 11.3056H18.9542C19.2757 11.3056 19.584 11.4324 19.8113 11.6581C20.0386 11.8839 20.1663 12.19 20.1663 12.5093V19.1296Z" stroke="white" stroke-linecap="round" stroke-linejoin="round"/>
<path d="M13.5 17.833C14.8807 17.833 16 16.7137 16 15.333C16 13.9523 14.8807 12.833 13.5 12.833C12.1193 12.833 11 13.9523 11 15.333C11 16.7137 12.1193 17.833 13.5 17.833Z" stroke="white" stroke-linecap="round" stroke-linejoin="round"/>
</svg>
