<svg width="20" height="20" viewBox="0 0 20 20" fill="none" xmlns="http://www.w3.org/2000/svg">
<path d="M11.6667 1.66699H4.99999C4.55797 1.66699 4.13404 1.84259 3.82148 2.15515C3.50892 2.46771 3.33333 2.89163 3.33333 3.33366V16.667C3.33333 17.109 3.50892 17.5329 3.82148 17.8455C4.13404 18.1581 4.55797 18.3337 4.99999 18.3337H15C15.442 18.3337 15.8659 18.1581 16.1785 17.8455C16.4911 17.5329 16.6667 17.109 16.6667 16.667V6.66699L11.6667 1.66699Z" stroke="white" stroke-linecap="round" stroke-linejoin="round"/>
<path d="M11.6667 1.66699V6.66699H16.6667" stroke="white" stroke-linecap="round" stroke-linejoin="round"/>
<path d="M13.3333 10.833H6.66667" stroke="white" stroke-linecap="round" stroke-linejoin="round"/>
<path d="M13.3333 14.167H6.66667" stroke="white" stroke-linecap="round" stroke-linejoin="round"/>
<path d="M8.33334 7.5H7.50001H6.66667" stroke="white" stroke-linecap="round" stroke-linejoin="round"/>
</svg>
