<svg width="49" height="21" viewBox="0 0 49 21" fill="none" xmlns="http://www.w3.org/2000/svg">
<g clip-path="url(#clip0_123_763)">
<path d="M12.5523 14.3399L13.1472 13.9614H8.02539L8.62025 14.3399C9.37087 14.8171 9.93649 15.5168 10.2133 16.3093L10.2637 16.4537H10.9089L10.9593 16.3093C11.2361 15.5163 11.8017 14.8171 12.5523 14.3399ZM10.5863 16.025C10.3368 15.3991 9.92389 14.8319 9.39104 14.3768H11.781C11.2482 14.8314 10.8353 15.3987 10.5858 16.025H10.5863Z" fill="#D3D3D3"/>
<path d="M1.23508 16.4537H1.53251L1.58292 16.3093C1.85968 15.5163 2.4253 14.8171 3.17593 14.3399L3.77078 13.9614H1.23508C0.554023 13.9614 0 14.4687 0 15.0922V15.323C0 15.9465 0.554023 16.4537 1.23508 16.4537ZM0.453704 15.0922C0.453704 14.6976 0.804064 14.3768 1.23508 14.3768H2.40513C1.86876 14.8347 1.45336 15.407 1.20484 16.0379C0.787932 16.0231 0.453704 15.7083 0.453704 15.323V15.0922Z" fill="#D3D3D3"/>
<path d="M5.84799 15.4529C4.63357 15.4529 3.64551 16.3575 3.64551 17.4693C3.64551 18.5812 4.63357 19.4858 5.84799 19.4858C7.0624 19.4858 8.05047 18.5812 8.05047 17.4693C8.05047 16.3575 7.0624 15.4529 5.84799 15.4529ZM5.84799 19.0704C4.88362 19.0704 4.09921 18.3523 4.09921 17.4693C4.09921 16.5864 4.88362 15.8683 5.84799 15.8683C6.81236 15.8683 7.59676 16.5864 7.59676 17.4693C7.59676 18.3523 6.81236 19.0704 5.84799 19.0704Z" fill="#D3D3D3"/>
<path d="M5.84784 16.6384C5.34775 16.6384 4.94043 17.0114 4.94043 17.4692C4.94043 17.927 5.34775 18.3 5.84784 18.3C6.34792 18.3 6.75524 17.927 6.75524 17.4692C6.75524 17.0114 6.34792 16.6384 5.84784 16.6384ZM5.84784 17.8846C5.5978 17.8846 5.39413 17.6981 5.39413 17.4692C5.39413 17.2403 5.5978 17.0538 5.84784 17.0538C6.09788 17.0538 6.30154 17.2403 6.30154 17.4692C6.30154 17.6981 6.09788 17.8846 5.84784 17.8846Z" fill="#D3D3D3"/>
<path d="M9.70393 17.4692C9.70393 15.5225 7.97381 13.9385 5.84745 13.9385C3.72109 13.9385 1.99097 15.5225 1.99097 17.4692C1.99097 18.564 2.53793 19.5443 3.39543 20.1923H0.453414C0.32789 20.1923 0.226562 20.2851 0.226562 20.4C0.226562 20.5149 0.32789 20.6077 0.453414 20.6077H4.08304C4.08304 20.6077 4.08355 20.6077 4.08405 20.6077C4.61287 20.8579 5.21226 21 5.84745 21C6.48263 21 7.08203 20.8579 7.61084 20.6077C7.61084 20.6077 7.61135 20.6077 7.61185 20.6077H9.42667C9.55219 20.6077 9.65352 20.5149 9.65352 20.4C9.65352 20.2851 9.55219 20.1923 9.42667 20.1923H8.29947C9.15646 19.5443 9.70393 18.564 9.70393 17.4692ZM2.44467 17.4692C2.44467 15.7514 3.97113 14.3539 5.84745 14.3539C7.72377 14.3539 9.25023 15.7514 9.25023 17.4692C9.25023 19.1871 7.72377 20.5846 5.84745 20.5846C3.97113 20.5846 2.44467 19.1871 2.44467 17.4692Z" fill="#D3D3D3"/>
<path d="M15.224 15.4529C14.0096 15.4529 13.0215 16.3575 13.0215 17.4693C13.0215 18.5812 14.0096 19.4858 15.224 19.4858C16.4384 19.4858 17.4264 18.5812 17.4264 17.4693C17.4264 16.3575 16.4384 15.4529 15.224 15.4529ZM15.224 19.0704C14.2596 19.0704 13.4752 18.3523 13.4752 17.4693C13.4752 16.5864 14.2596 15.8683 15.224 15.8683C16.1883 15.8683 16.9727 16.5864 16.9727 17.4693C16.9727 18.3523 16.1883 19.0704 15.224 19.0704Z" fill="#D3D3D3"/>
<path d="M15.2238 16.6384C14.7237 16.6384 14.3164 17.0114 14.3164 17.4692C14.3164 17.927 14.7237 18.3 15.2238 18.3C15.7239 18.3 16.1312 17.927 16.1312 17.4692C16.1312 17.0114 15.7239 16.6384 15.2238 16.6384ZM15.2238 17.8846C14.9738 17.8846 14.7701 17.6981 14.7701 17.4692C14.7701 17.2403 14.9738 17.0538 15.2238 17.0538C15.4739 17.0538 15.6775 17.2403 15.6775 17.4692C15.6775 17.6981 15.4739 17.8846 15.2238 17.8846Z" fill="#D3D3D3"/>
<path d="M44.3617 15.4529C43.1472 15.4529 42.1592 16.3575 42.1592 17.4693C42.1592 18.5812 43.1472 19.4858 44.3617 19.4858C45.5761 19.4858 46.5641 18.5812 46.5641 17.4693C46.5641 16.3575 45.5761 15.4529 44.3617 15.4529ZM44.3617 19.0704C43.3973 19.0704 42.6129 18.3523 42.6129 17.4693C42.6129 16.5864 43.3973 15.8683 44.3617 15.8683C45.326 15.8683 46.1104 16.5864 46.1104 17.4693C46.1104 18.3523 45.326 19.0704 44.3617 19.0704Z" fill="#D3D3D3"/>
<path d="M44.3625 16.6384C43.8624 16.6384 43.4551 17.0114 43.4551 17.4692C43.4551 17.927 43.8624 18.3 44.3625 18.3C44.8626 18.3 45.2699 17.927 45.2699 17.4692C45.2699 17.0114 44.8626 16.6384 44.3625 16.6384ZM44.3625 17.8846C44.1124 17.8846 43.9088 17.6981 43.9088 17.4692C43.9088 17.2403 44.1124 17.0538 44.3625 17.0538C44.6125 17.0538 44.8162 17.2403 44.8162 17.4692C44.8162 17.6981 44.6125 17.8846 44.3625 17.8846Z" fill="#D3D3D3"/>
<path d="M48.9614 12.7347C48.9584 12.7305 48.9347 12.6987 48.8858 12.647C48.8783 12.6368 48.8702 12.6267 48.8606 12.6175C48.8566 12.6133 48.8415 12.5995 48.8178 12.5778C48.6756 12.4402 48.4175 12.2256 47.9915 11.9828V10.5918C47.9915 9.98715 47.7405 9.30084 47.0332 9.18684L38.8953 7.94761L38.003 4.79346C38.002 4.79069 38.0015 4.78792 38.0005 4.78515C37.761 4.06515 37.2614 3.71484 36.473 3.71484H31.2302C30.5491 3.71484 29.9951 4.22207 29.9951 4.84561V12.5072C29.9951 13.1307 30.5491 13.6379 31.2302 13.6379H37.8845C38.3155 13.6379 38.6659 13.9587 38.6659 14.3533V15.7841C38.6659 15.899 38.7672 15.9918 38.8928 15.9918H40.2846C40.3668 15.9918 40.4429 15.9512 40.4827 15.8852L41.4083 14.3644C41.7108 13.8973 42.2759 13.5456 42.724 13.5456H45.7487C46.2307 13.5456 46.9006 13.9919 47.1083 14.3538L47.4612 14.9999C47.4995 15.0701 47.5782 15.1148 47.6644 15.1148H48.7734C48.8989 15.1148 49.0003 15.0221 49.0003 14.9072V12.8496C49.0003 12.8085 48.9872 12.7684 48.9619 12.7342L48.9614 12.7347ZM48.5461 14.6999H47.8403V13.2692C47.8403 13.1542 47.739 13.0615 47.6134 13.0615C47.4879 13.0615 47.3866 13.1542 47.3866 13.2692V13.985C47.0347 13.5516 46.336 13.1307 45.7482 13.1307H42.7235C42.1075 13.1307 41.4053 13.5521 41.0161 14.1558C41.0151 14.1572 41.0141 14.159 41.0131 14.1604L40.151 15.5768H39.3283L40.276 12.9184C40.3149 12.8095 40.2498 12.6922 40.1309 12.6567C40.0119 12.6212 39.8838 12.6807 39.845 12.7896L39.1196 14.825V14.3542C39.1196 13.7307 38.5656 13.2235 37.8845 13.2235H31.2302C30.7992 13.2235 30.4488 12.9027 30.4488 12.5081V4.84607C30.4488 4.45838 30.7871 4.14269 31.2075 4.13161C31.207 4.13807 31.205 4.14407 31.205 4.151V11.0025C31.205 11.0815 31.1879 11.6519 31.6108 12.0659C31.8946 12.3438 32.3014 12.4845 32.8187 12.4845H36.3137C36.4392 12.4845 36.5405 12.3918 36.5405 12.2768C36.5405 12.1619 36.4392 12.0692 36.3137 12.0692H32.8187C32.4335 12.0692 32.1396 11.9736 31.945 11.7844C31.6335 11.4821 31.6582 11.0252 31.6582 11.0215C31.6582 11.0168 31.6582 11.0122 31.6582 11.0076V4.151C31.6582 4.14407 31.6577 4.13761 31.6567 4.13069H36.4725C37.0568 4.13069 37.3839 4.36146 37.5649 4.90238L38.493 8.183C38.5157 8.26238 38.5868 8.32238 38.6755 8.33577L46.9566 9.59669C47.5096 9.68577 47.5378 10.4418 47.5378 10.5922V11.7682C47.2933 11.669 47.0282 11.5933 46.7544 11.567C45.7341 11.4687 42.472 11.1128 42.4392 11.1092C42.3152 11.0958 42.2018 11.177 42.1871 11.291C42.1725 11.405 42.2612 11.5084 42.3858 11.5218C42.4185 11.5255 45.6837 11.8813 46.707 11.9801C47.5484 12.0613 48.3439 12.7356 48.5042 12.8787C48.5208 12.8953 48.535 12.9096 48.5461 12.9216V14.6999Z" fill="#D3D3D3"/>
<path d="M36.9964 5.67552L36.9939 5.66628C36.7731 4.95367 36.3607 4.59229 35.7674 4.59229H33.6501C32.9691 4.59229 32.415 5.09952 32.415 5.72305V7.29228C32.415 7.91582 32.9691 8.42305 33.6501 8.42305H36.1707C36.5619 8.42305 36.9511 8.26152 37.1865 8.00167C37.3806 7.78752 37.4572 7.52167 37.4017 7.25398L36.9964 5.67552ZM36.8371 7.73675C36.6879 7.90152 36.4263 8.00767 36.1707 8.00767H33.6501C33.2191 8.00767 32.8687 7.6869 32.8687 7.29228V5.72305C32.8687 5.32844 33.2191 5.00767 33.6501 5.00767H35.7674C36.0033 5.00767 36.3416 5.08752 36.5558 5.77521L36.9566 7.33475C36.9853 7.48152 36.9455 7.61675 36.8371 7.73628V7.73675Z" fill="#D3D3D3"/>
<path d="M36.9265 13.9616H29.5412V1.28503C29.5412 0.247496 28.6978 0.0176495 28.662 0.00841874C28.541 -0.0229659 28.416 0.0416495 28.3822 0.151957C28.3484 0.262265 28.4185 0.377188 28.539 0.408111C28.5445 0.409496 29.088 0.558573 29.088 1.28503V13.9621H28.6343V2.0235C28.6343 0.985957 27.7909 0.756111 27.7551 0.74688C27.6341 0.715496 27.5081 0.77965 27.4738 0.889957C27.4395 1.00026 27.5086 1.11473 27.6291 1.14611C27.6517 1.15257 28.1806 1.3095 28.1806 2.02396V13.9626H17.3018L17.8966 14.341C18.6472 14.8183 19.2129 15.518 19.4896 16.3104L19.54 16.4549H25.8112V18.001C25.8112 18.6246 26.3652 19.1318 27.0463 19.1318H36.07C36.751 19.1318 37.3051 18.6246 37.3051 18.001V16.4C37.8016 16.2532 38.162 15.8272 38.162 15.3241V15.0933C38.162 14.6807 38.1459 14.3738 37.9382 14.1795C37.7426 13.9963 37.4442 13.9626 36.927 13.9626L36.9265 13.9616ZM36.8508 18.0001C36.8508 18.3947 36.5005 18.7155 36.0695 18.7155H35.5906V16.5001C35.5906 16.3852 35.4892 16.2924 35.3637 16.2924C35.2382 16.2924 35.1369 16.3852 35.1369 16.5001V18.7155H31.7089V16.5001C31.7089 16.3852 31.6075 16.2924 31.482 16.2924C31.3565 16.2924 31.2552 16.3852 31.2552 16.5001V18.7155H27.9784V16.5001C27.9784 16.3852 27.8771 16.2924 27.7516 16.2924C27.626 16.2924 27.5247 16.3852 27.5247 16.5001V18.7155H27.0458C26.6148 18.7155 26.2644 18.3947 26.2644 18.0001V15.9693C26.2644 15.5747 26.6148 15.254 27.0458 15.254H29.3899V17.4232C29.3899 17.5381 29.4913 17.6309 29.6168 17.6309C29.7423 17.6309 29.8436 17.5381 29.8436 17.4232V15.254H33.1708V17.4232C33.1708 17.5381 33.2721 17.6309 33.3977 17.6309C33.5232 17.6309 33.6245 17.5381 33.6245 17.4232V15.254H36.0695C36.5005 15.254 36.8508 15.5747 36.8508 15.9693V18.0001ZM37.7078 15.3232C37.7078 15.5923 37.5445 15.8263 37.304 15.9481C37.2914 15.3343 36.743 14.8386 36.0695 14.8386H27.0458C26.3647 14.8386 25.8107 15.3458 25.8107 15.9693V16.0386H19.8677C19.6192 15.4072 19.2038 14.8349 18.6674 14.377H36.927C37.2803 14.377 37.5324 14.3927 37.6141 14.4689C37.7013 14.5506 37.7083 14.8215 37.7083 15.0924V15.3232H37.7078Z" fill="#D3D3D3"/>
<path d="M34.784 8.93066H32.7171C32.5916 8.93066 32.4902 9.02343 32.4902 9.13836C32.4902 9.25328 32.5916 9.34605 32.7171 9.34605H34.784C34.9095 9.34605 35.0108 9.25328 35.0108 9.13836C35.0108 9.02343 34.9095 8.93066 34.784 8.93066Z" fill="#D3D3D3"/>
<path d="M41.442 9.37025L39.2501 9.05917C39.2168 9.05455 39.1831 9.05225 39.1493 9.05225C38.8241 9.05225 38.5519 9.26594 38.502 9.5604C38.4753 9.71871 38.5171 9.87701 38.621 10.0067C38.7243 10.1359 38.8766 10.2209 39.0495 10.2453L41.2414 10.5564C41.2746 10.561 41.3084 10.5633 41.3422 10.5633C41.6673 10.5633 41.9396 10.3496 41.9895 10.0552C42.0162 9.89686 41.9743 9.73809 41.8705 9.60886C41.7672 9.47963 41.6149 9.39471 41.442 9.37025ZM41.5408 9.99148C41.5242 10.0902 41.4198 10.1613 41.3104 10.1456L39.1185 9.83455C39.0086 9.81886 38.933 9.72425 38.9502 9.62409C38.9653 9.53502 39.0505 9.46763 39.1488 9.46763C39.1594 9.46763 39.1694 9.46855 39.18 9.46994L41.3719 9.78101C41.4254 9.7884 41.4717 9.81471 41.504 9.8544C41.5358 9.89409 41.5489 9.94301 41.5403 9.99148H41.5408Z" fill="#D3D3D3"/>
<path d="M20.5683 20.1923H17.6767C18.5337 19.5443 19.0811 18.564 19.0811 17.4692C19.0811 15.5225 17.351 13.9385 15.2246 13.9385C13.0983 13.9385 11.3682 15.5225 11.3682 17.4692C11.3682 18.564 11.9151 19.5443 12.7726 20.1923H11.595C11.4695 20.1923 11.3682 20.2851 11.3682 20.4C11.3682 20.5149 11.4695 20.6077 11.595 20.6077H13.4098C13.4245 20.6077 13.4391 20.6063 13.4527 20.6036C13.9835 20.856 14.5859 21 15.2246 21C15.8634 21 16.4592 20.8579 16.988 20.6077H20.5683C20.6938 20.6077 20.7951 20.5149 20.7951 20.4C20.7951 20.2851 20.6938 20.1923 20.5683 20.1923ZM11.8219 17.4692C11.8219 15.7514 13.3483 14.3539 15.2246 14.3539C17.101 14.3539 18.6274 15.7514 18.6274 17.4692C18.6274 19.1871 17.101 20.5846 15.2246 20.5846C13.3483 20.5846 11.8219 19.1871 11.8219 17.4692Z" fill="#D3D3D3"/>
<path d="M48.4958 20.1923H46.8141C47.6711 19.5443 48.2186 18.564 48.2186 17.4692C48.2186 15.5225 46.4885 13.9385 44.3621 13.9385C42.2357 13.9385 40.5056 15.5225 40.5056 17.4692C40.5056 18.564 41.0526 19.5443 41.9101 20.1923H38.9681C38.8425 20.1923 38.7412 20.2851 38.7412 20.4C38.7412 20.5149 38.8425 20.6077 38.9681 20.6077H42.5977C42.5977 20.6077 42.5982 20.6077 42.5987 20.6077C43.1275 20.8579 43.7269 21 44.3621 21C44.9973 21 45.5967 20.8579 46.1255 20.6077H48.4958C48.6214 20.6077 48.7227 20.5149 48.7227 20.4C48.7227 20.2851 48.6214 20.1923 48.4958 20.1923ZM40.9593 17.4692C40.9593 15.7514 42.4858 14.3539 44.3621 14.3539C46.2384 14.3539 47.7649 15.7514 47.7649 17.4692C47.7649 19.1871 46.2384 20.5846 44.3621 20.5846C42.4858 20.5846 40.9593 19.1871 40.9593 17.4692Z" fill="#D3D3D3"/>
</g>
<defs>
<clipPath id="clip0_123_763">
<rect width="49" height="21" fill="white"/>
</clipPath>
</defs>
</svg>
