<svg width="48" height="48" viewBox="0 0 48 48" fill="none" xmlns="http://www.w3.org/2000/svg">
<path fill-rule="evenodd" clip-rule="evenodd" d="M44 24C44 35.0457 35.0457 44 24 44C12.9543 44 4 35.0457 4 24C4 12.9543 12.9543 4 24 4C35.0457 4 44 12.9543 44 24ZM21.5254 39.8098C20.2078 36.5758 16.4415 27.8138 14 27C12.2923 26.4308 9.93666 26.5096 8.22399 26.6831C9.36471 33.4392 14.74 38.7563 21.5254 39.8098ZM8.65889 19.441C10.6219 12.8255 16.7474 8 24 8C31.2526 8 37.3781 12.8255 39.3411 19.441C36.1835 18.8493 30.5164 18 24 18C17.4836 18 11.8165 18.8493 8.65889 19.441ZM39.776 26.6831C38.0633 26.5096 35.7077 26.4308 34 27C31.5585 27.8138 27.7922 36.5758 26.4746 39.8098C33.26 38.7563 38.6353 33.4392 39.776 26.6831Z" fill="#D3D3D3"/>
</svg>
